<svg width="175" height="175" viewBox="0 -0.5 44.06 44.06" xmlns="http://www.w3.org/2000/svg"><path d="M22.03 7.56c3.89 0 7.35 1.58 9.87 4.1 2.59 2.52 4.1 6.05 4.1 9.94a13.7 13.7 0 0 1-4.1 9.86 13.87 13.87 0 0 1-9.87 4.1 14 14 0 1 1 0-28zm0 .22a13.77 13.77 0 0 0-9.72 4.03 13.82 13.82 0 0 0-4.1 9.79c0 3.81 1.58 7.27 4.1 9.72a13.47 13.47 0 0 0 9.72 4.03c3.82 0 7.27-1.51 9.72-4.03a13.47 13.47 0 0 0 4.03-9.72c0-3.82-1.5-7.27-4.03-9.8a13.77 13.77 0 0 0-9.72-4.02z" fill="#bcbcb6"/><radialGradient id="a" cx="-1039.19" cy="1145.92" r="44.66" gradientTransform="matrix(1 0 0 -1 1045.93 1163.23)" gradientUnits="userSpaceOnUse"><stop offset="0" stop-color="#fff"/><stop offset=".04" stop-color="#fafaf8"/><stop offset=".23" stop-color="#f8f8f5"/><stop offset=".29" stop-color="#dadad7"/><stop offset=".41" stop-color="#a3a4a1"/><stop offset=".52" stop-color="#7e7f7d"/><stop offset=".6" stop-color="#686866"/><stop offset=".65" stop-color="#5f5f5d"/><stop offset=".74" stop-color="#565754"/><stop offset=".9" stop-color="#3b3a37"/><stop offset="1"/></radialGradient><path d="M22.03.14c4.9 0 9.43 1.66 13.03 4.4l2.38-2.38 4.18 4.18-2.38 2.44a21.45 21.45 0 0 1-17.2 34.2A21.45 21.45 0 0 1 .63 21.53C.65 9.72 10.23.14 22.05.14zm0 5.04c-9 0-16.34 7.35-16.34 16.35A16.33 16.33 0 1 0 22.03 5.19z" fill="url(#a)"/><linearGradient id="b" gradientUnits="userSpaceOnUse" x1="-1032.34" y1="1144.55" x2="-1016.32" y2="1139.03" gradientTransform="matrix(1 0 0 -1 1045.93 1163.23)"><stop offset="0" stop-color="#dcdbd3"/><stop offset="1" stop-color="#fff"/></linearGradient><path d="M22.03 5.11c4.54 0 8.64 1.8 11.67 4.83a16.42 16.42 0 0 1 4.82 11.66c0 4.54-1.87 8.64-4.82 11.66a16.68 16.68 0 0 1-11.67 4.83 16.55 16.55 0 0 1-11.66-4.83A16.68 16.68 0 0 1 5.54 21.6c0-4.6 1.88-8.71 4.83-11.66A16.25 16.25 0 0 1 22.03 5.1zm0 .22c-4.46 0-8.57 1.8-11.52 4.75S5.76 17.06 5.76 21.6c0 4.46 1.8 8.57 4.75 11.52a16.58 16.58 0 0 0 11.52 4.75c4.47 0 8.57-1.87 11.52-4.75A16.28 16.28 0 0 0 38.3 21.6c0-4.54-1.8-8.57-4.75-11.52a16.28 16.28 0 0 0-11.52-4.75z" fill="url(#b)"/><radialGradient id="c" cx="-1011.19" cy="1127.92" r="49.02" gradientTransform="matrix(1 0 0 -1 1045.93 1163.23)" gradientUnits="userSpaceOnUse"><stop offset="0" stop-color="#bbbcb7"/><stop offset="1" stop-color="#808079"/></radialGradient><path d="M22.03 0c4.9 0 9.5 1.66 13.1 4.46l-.07.08A21.52 21.52 0 0 0 22.03.14 21.39 21.39 0 0 0 .65 21.53c0 11.8 9.57 21.45 21.38 21.45s21.39-9.64 21.39-21.45c0-4.75-1.52-9.15-4.18-12.75l.07-.07a21.55 21.55 0 0 1-17.28 34.35 21.44 21.44 0 0 1-15.19-6.27A21.68 21.68 0 0 1 .5 21.53c0-5.9 2.45-11.3 6.34-15.2A21.38 21.38 0 0 1 22.04 0z" fill="url(#c)"/><radialGradient id="d" cx="-1016.19" cy="1133.92" r="34.42" gradientTransform="matrix(1 0 0 -1 1045.93 1163.23)" gradientUnits="userSpaceOnUse"><stop offset="0" stop-color="#fff"/><stop offset=".16" stop-color="#f1f1f2"/><stop offset=".3" stop-color="#e4e4e5"/><stop offset=".34" stop-color="#cecfce"/><stop offset=".4" stop-color="#aeafac"/><stop offset=".46" stop-color="#969694"/><stop offset=".53" stop-color="#858683"/><stop offset=".59" stop-color="#7c7c79"/><stop offset=".64" stop-color="#787976"/><stop offset=".74" stop-color="#5e5e5b"/><stop offset=".85" stop-color="#43423f"/><stop offset=".94" stop-color="#1f1f1e"/><stop offset="1"/></radialGradient><path d="M22.03 5.26A16.33 16.33 0 1 1 5.7 21.6c0-9.07 7.34-16.34 16.34-16.34zm0 2.3a14 14 0 0 0 0 28 14 14 0 0 0 0-28z" fill="url(#d)"/><linearGradient id="e" gradientUnits="userSpaceOnUse" x1="-1043.36" y1="1136.42" x2="-1043.36" y2="1136.55" gradientTransform="matrix(1 0 0 -1 1045.93 1163.23)"><stop offset="0" stop-color="#fff"/><stop offset=".17" stop-color="#f8f8f5"/><stop offset=".43" stop-color="#b1b1ac"/><stop offset=".43" stop-color="#adaea8"/><stop offset=".53" stop-color="#898984"/><stop offset=".63" stop-color="#6c6c67"/><stop offset=".73" stop-color="#53534e"/><stop offset=".82" stop-color="#3e3e3a"/><stop offset=".92" stop-color="#252523"/><stop offset="1" stop-color="#1b1a19"/></linearGradient><path d="m2.5 26.72.01.05c0 .02.02.03.05.03a.1.1 0 0 0 .04-.01.24.24 0 0 0 .05-.04v-.16c-.06.01-.1.02-.12.05a.1.1 0 0 0-.04.08z" opacity=".67" fill="url(#e)"/><linearGradient id="f" gradientUnits="userSpaceOnUse" x1="-1040.34" y1="1136.88" x2="-1040.34" y2="1136.93" gradientTransform="matrix(1 0 0 -1 1045.93 1163.23)"><stop offset="0" stop-color="#fff"/><stop offset=".17" stop-color="#f8f8f5"/><stop offset=".43" stop-color="#b1b1ac"/><stop offset=".43" stop-color="#adaea8"/><stop offset=".53" stop-color="#898984"/><stop offset=".63" stop-color="#6c6c67"/><stop offset=".73" stop-color="#53534e"/><stop offset=".82" stop-color="#3e3e3a"/><stop offset=".92" stop-color="#252523"/><stop offset="1" stop-color="#1b1a19"/></linearGradient><path opacity=".67" fill="url(#f)" d="M5.54 26.26h.1v.09h-.1z"/><linearGradient id="g" gradientUnits="userSpaceOnUse" x1="-1040.34" y1="1136.78" x2="-1040.34" y2="1136.83" gradientTransform="matrix(1 0 0 -1 1045.93 1163.23)"><stop offset="0" stop-color="#fff"/><stop offset=".17" stop-color="#f8f8f5"/><stop offset=".43" stop-color="#b1b1ac"/><stop offset=".43" stop-color="#adaea8"/><stop offset=".53" stop-color="#898984"/><stop offset=".63" stop-color="#6c6c67"/><stop offset=".73" stop-color="#53534e"/><stop offset=".82" stop-color="#3e3e3a"/><stop offset=".92" stop-color="#252523"/><stop offset="1" stop-color="#1b1a19"/></linearGradient><path opacity=".67" fill="url(#g)" d="M5.54 26.36h.1v.1h-.1z"/><linearGradient id="h" gradientUnits="userSpaceOnUse" x1="-1042.34" y1="1136.42" x2="-1042.34" y2="1136.55" gradientTransform="matrix(1 0 0 -1 1045.93 1163.23)"><stop offset="0" stop-color="#fff"/><stop offset=".17" stop-color="#f8f8f5"/><stop offset=".43" stop-color="#b1b1ac"/><stop offset=".43" stop-color="#adaea8"/><stop offset=".53" stop-color="#898984"/><stop offset=".63" stop-color="#6c6c67"/><stop offset=".73" stop-color="#53534e"/><stop offset=".82" stop-color="#3e3e3a"/><stop offset=".92" stop-color="#252523"/><stop offset="1" stop-color="#1b1a19"/></linearGradient><path d="m3.5 26.72.02.05c.01.02.03.03.05.03l.05-.01a.21.21 0 0 0 .05-.04v-.16c-.06.01-.1.02-.13.05a.1.1 0 0 0-.03.08z" opacity=".67" fill="url(#h)"/><linearGradient id="i" gradientUnits="userSpaceOnUse" x1="-1039.81" y1="1136.68" x2="-1039.81" y2="1136.76" gradientTransform="matrix(1 0 0 -1 1045.93 1163.23)"><stop offset="0" stop-color="#fff"/><stop offset=".17" stop-color="#f8f8f5"/><stop offset=".43" stop-color="#b1b1ac"/><stop offset=".43" stop-color="#adaea8"/><stop offset=".53" stop-color="#898984"/><stop offset=".63" stop-color="#6c6c67"/><stop offset=".73" stop-color="#53534e"/><stop offset=".82" stop-color="#3e3e3a"/><stop offset=".92" stop-color="#252523"/><stop offset="1" stop-color="#1b1a19"/></linearGradient><path opacity=".67" fill="url(#i)" d="M5.98 26.41h.28v.13h-.28z"/><linearGradient id="j" gradientUnits="userSpaceOnUse" x1="-1040.4" y1="1134.52" x2="-1040.4" y2="1136.07" gradientTransform="matrix(1 0 0 -1 1045.93 1163.23)"><stop offset="0" stop-color="#fff"/><stop offset=".17" stop-color="#f8f8f5"/><stop offset=".43" stop-color="#b1b1ac"/><stop offset=".43" stop-color="#adaea8"/><stop offset=".53" stop-color="#898984"/><stop offset=".63" stop-color="#6c6c67"/><stop offset=".73" stop-color="#53534e"/><stop offset=".82" stop-color="#3e3e3a"/><stop offset=".92" stop-color="#252523"/><stop offset="1" stop-color="#1b1a19"/></linearGradient><path d="M8.77 25.96H1.1c.2.9.45 1.77.75 2.62h8.1a13.95 13.95 0 0 1-1.2-2.62zm-3.26.16.05.04-.02.03v.06h.1l.02-.04.04.05-.02.02v.07h.01l.03-.04.04.06h-.08v.11l-.04.02v-.03h-.1v.1h.08l.02-.04.04.05h-.14v.1h.13l.03-.05.04.06h-.2v.12l-.04.02v-.14h-.1a.07.07 0 0 0-.04.01l-.02-.03h.17v-.09h-.08l-.03.01-.02-.02h.13v-.1H5.4l-.02-.02h.13v-.09h-.12l-.03.01-.02-.02h.17v-.09h-.07l-.04.01-.02-.02h.13a1.45 1.45 0 0 0 0-.12zm-3.15.7h-.21v-.02h.06l.02-.01v-.5a.03.03 0 0 0 0-.02.03.03 0 0 0-.02-.01h-.06v-.02h.03a.15.15 0 0 0 .09-.03V26.8h.09v.03zm.37-.02-.03.02a.04.04 0 0 1-.03-.01.08.08 0 0 1-.02-.03.32.32 0 0 1-.05.03.12.12 0 0 1-.05.01.1.1 0 0 1-.07-.02.09.09 0 0 1-.03-.07c0-.04.01-.07.04-.1l.16-.06v-.04a.12.12 0 0 0-.01-.05c0-.02-.03-.03-.05-.03l-.07.03-.01.03a.04.04 0 0 1 0 .03.02.02 0 0 1-.02.01.02.02 0 0 1-.02 0 .04.04 0 0 1 0-.03c0-.02 0-.04.03-.06a.13.13 0 0 1 .08-.02c.04 0 .06 0 .08.02.02.02.03.04.03.07v.26h.02l.02-.01v-.04h.01v.06zm.34.02h-.1v-.02l.03-.01v-.25a.12.12 0 0 0-.01-.06.04.04 0 0 0-.04-.02.08.08 0 0 0-.05.02.18.18 0 0 0-.05.06v.23l.01.02h.03v.03h-.11v-.02h.03V26.45h-.03v-.02h.04l.03-.02v.08a.26.26 0 0 1 .05-.05.08.08 0 0 1 .05-.02c.03 0 .05.01.06.03a.17.17 0 0 1 .03.1V26.78h.03v.03zm.29-.03c-.02.02-.04.03-.07.03s-.04 0-.05-.03l-.03-.1v-.23h-.07v-.02h.02a.06.06 0 0 0 .05-.02c.02-.02.02-.05.03-.08v-.03h.01v.13h.1v.02h-.1v.25c0 .03 0 .06.02.07l.04.01a.05.05 0 0 0 .04-.02.15.15 0 0 0 .02-.06h.01a.17.17 0 0 1-.03.08zm.38.01-.03.02-.03-.01-.01-.03a.32.32 0 0 1-.05.03.11.11 0 0 1-.06.01.1.1 0 0 1-.1-.09.14.14 0 0 1 .04-.1c.03-.02.08-.04.17-.06v-.04a.12.12 0 0 0-.02-.05c0-.02-.02-.03-.05-.03-.03 0-.05.01-.06.03-.02 0-.02.02-.02.03v.03l-.02.01a.02.02 0 0 1-.01 0 .04.04 0 0 1-.01-.03c0-.02 0-.04.03-.06a.13.13 0 0 1 .09-.02c.03 0 .06 0 .08.02l.02.07v.26h.02l.02-.01v-.04h.02a.12.12 0 0 1-.02.06zm.33-.29-.02.01-.02-.01a.04.04 0 0 1 0-.03v-.01L4 26.46l-.05.03a.3.3 0 0 0-.06.1v.18l.01.02h.08v.03h-.2v-.02h.08V26.48a.05.05 0 0 0 0-.02h-.08v-.03h.02a.2.2 0 0 0 .09-.02v.13a.33.33 0 0 1 .06-.09.09.09 0 0 1 .06-.02l.05.01.01.03v.03zm.75.18v.14c0 .04-.02.08-.06.1 0-.04-.03-.06-.08-.08v-.01h.07c.02 0 .03 0 .03-.04v-.11h-.22a.13.13 0 0 0-.05.01l-.02-.03h.29v-.1l.03.03.07-.08h-.24l-.02-.02h.26l.03-.03.05.07c-.03 0-.07.01-.14.07l.02.01-.02.02v.03H5l.03-.04.06.06h-.27zm.27-.2c-.03 0-.05.01-.06.04a.41.41 0 0 1-.21-.26H4.8v.2h-.04v-.18a.58.58 0 0 1-.27.27v-.01a.65.65 0 0 0 .24-.28h-.17a.13.13 0 0 0-.05.01l-.02-.03h.27v-.12l.07.04-.03.02v.06H5l.03-.04.05.06h-.25a.32.32 0 0 0 .26.2v.02zm.68.36c-.04.02-.05.03-.05.05a2.29 2.29 0 0 1-.17 0 .41.41 0 0 1-.16-.03.31.31 0 0 1-.1-.08.4.4 0 0 1-.13.13.46.46 0 0 0 .1-.16.65.65 0 0 1-.06-.17h.01a.79.79 0 0 0 .07.13c.02-.06.03-.13.03-.23h-.07l-.02.04-.04-.05.03-.01a3.97 3.97 0 0 0 .1-.2H5.18l-.03-.02h.15l.02-.04.04.06-.03.02-.1.19h.07l.02-.03.04.05-.02.02a1.17 1.17 0 0 1-.05.23.2.2 0 0 0 .1.07.49.49 0 0 0 .14.03l.23-.01v.01zm.65 0c-.03 0-.05.02-.06.05a.7.7 0 0 1-.13-.07.4.4 0 0 1-.1-.1.5.5 0 0 1-.07-.17h-.08v.27l.14-.08v.01a.56.56 0 0 0-.16.14l-.03-.05a.08.08 0 0 0 .02-.04v-.59l.03.04h.13a.26.26 0 0 0-.04-.12c.05.02.07.04.08.06 0 .02 0 .04-.02.06h.12l.02-.03.04.04-.02.02v.28l-.04.02v-.03h-.17a.52.52 0 0 0 .07.15.58.58 0 0 0 .16-.14l.04.07h-.03l-.16.08a.3.3 0 0 0 .12.09.39.39 0 0 0 .14.02v.01z" opacity=".67" fill="url(#j)"/><linearGradient id="k" gradientUnits="userSpaceOnUse" x1="-1039.81" y1="1136.83" x2="-1039.81" y2="1136.9" gradientTransform="matrix(1 0 0 -1 1045.93 1163.23)"><stop offset="0" stop-color="#fff"/><stop offset=".17" stop-color="#f8f8f5"/><stop offset=".43" stop-color="#b1b1ac"/><stop offset=".43" stop-color="#adaea8"/><stop offset=".53" stop-color="#898984"/><stop offset=".63" stop-color="#6c6c67"/><stop offset=".73" stop-color="#53534e"/><stop offset=".82" stop-color="#3e3e3a"/><stop offset=".92" stop-color="#252523"/><stop offset="1" stop-color="#1b1a19"/></linearGradient><path opacity=".67" fill="url(#k)" d="M5.98 26.28h.28v.11h-.28z"/><linearGradient id="l" gradientUnits="userSpaceOnUse" x1="-1823.48" y1="1134.52" x2="-1823.48" y2="1136.07" gradientTransform="rotate(180 -892.47 581.62)"><stop offset="0" stop-color="#fff"/><stop offset=".17" stop-color="#f8f8f5"/><stop offset=".43" stop-color="#b1b1ac"/><stop offset=".43" stop-color="#adaea8"/><stop offset=".53" stop-color="#898984"/><stop offset=".63" stop-color="#6c6c67"/><stop offset=".73" stop-color="#53534e"/><stop offset=".82" stop-color="#3e3e3a"/><stop offset=".92" stop-color="#252523"/><stop offset="1" stop-color="#1b1a19"/></linearGradient><path d="M35.3 25.96h7.66a20.88 20.88 0 0 1-.75 2.62h-8.09c.48-.82.88-1.7 1.19-2.62z" opacity=".86" fill="url(#l)"/><path d="M43.34 16.13c.5 1.73.72 3.53.72 5.4a24 24 0 0 1-.72 5.61H.8v-.07h42.48c.5-1.8.72-3.67.72-5.61 0-1.88-.21-3.68-.65-5.33z"/><radialGradient id="m" cx="-1043.94" cy="1145.92" r="27.79" gradientTransform="matrix(1 0 0 -1 1045.93 1163.23)" gradientUnits="userSpaceOnUse"><stop offset="0" stop-color="#1e71b8"/><stop offset=".08" stop-color="#1c69ab"/><stop offset=".17" stop-color="#1b64a4"/><stop offset=".24" stop-color="#1a63a1"/><stop offset=".39" stop-color="#185d98"/><stop offset=".69" stop-color="#0f4d80"/><stop offset=".84" stop-color="#004472"/><stop offset=".93" stop-color="#014472"/><stop offset=".97" stop-color="#064271"/><stop offset=".99" stop-color="#0d3f6f"/><stop offset="1" stop-color="#0f3d6e"/></radialGradient><path d="M.72 16.06h42.62c.44 1.72.65 3.52.65 5.4 0 1.94-.22 3.81-.72 5.61H.8A20.73 20.73 0 0 1 0 21.46c0-1.88.29-3.68.72-5.4z" fill="url(#m)"/><linearGradient id="n" gradientUnits="userSpaceOnUse" x1="-1003.29" y1="1151.81" x2="-1014.12" y2="1162.64" gradientTransform="matrix(1 0 0 -1 1045.93 1163.23)"><stop offset=".01" stop-color="#121209"/><stop offset=".65" stop-color="#454441"/><stop offset=".65" stop-color="#484845"/><stop offset=".66" stop-color="#535350"/><stop offset=".66" stop-color="#646561"/><stop offset=".66" stop-color="#7b7b77"/><stop offset=".67" stop-color="#969792"/><stop offset=".67" stop-color="#bbbbb7"/><stop offset=".68" stop-color="#e8e7e2"/><stop offset=".68" stop-color="#fbfaf5"/><stop offset=".68" stop-color="#f8f7f2"/><stop offset=".68" stop-color="#f0f0ea"/><stop offset=".69" stop-color="#e4e3dd"/><stop offset=".69" stop-color="#d2d2cc"/><stop offset=".69" stop-color="#bbbcb5"/><stop offset=".69" stop-color="#a0a19a"/><stop offset=".69" stop-color="#83847d"/><stop offset=".69" stop-color="#6d6d67"/><stop offset=".71" stop-color="#5f5f5b"/><stop offset=".73" stop-color="#4d4d4b"/><stop offset=".76" stop-color="#3b3a3a"/><stop offset=".8" stop-color="#242324"/><stop offset=".85" stop-color="#101010"/><stop offset="1"/></linearGradient><path fill="url(#n)" d="m38.3.72 4.76 4.75L39.53 9l.21.29-2.52 2.01-.79.3 5.19-5.26-4.18-4.18-5.18 5.18.21-.72z"/><radialGradient id="o" cx="-1004.19" cy="1161.92" r="11.61" gradientTransform="matrix(1 0 0 -1 1045.93 1163.23)" gradientUnits="userSpaceOnUse"><stop offset="0" stop-color="#575652"/><stop offset="1" stop-color="#52524e"/></radialGradient><path d="M33.55.22A24.81 24.81 0 0 1 43.42 10V.2h-9.87z" fill="url(#o)"/><path d="M33.55.22A24.81 24.81 0 0 1 43.42 10" fill="none" stroke="#a7a79c" stroke-width=".34" stroke-linecap="round"/><path d="M33.55.22a24.64 24.64 0 0 1 9.8 9.79" fill="none" stroke="#c2c2b9" stroke-width=".24" stroke-linecap="round"/><path d="M33.48.22a24.55 24.55 0 0 1 9.86 9.86" fill="none" stroke="#e0e0d8" stroke-width=".13" stroke-linecap="round"/><path d="M33.48.22c4.1 2.3 7.56 5.68 9.8 9.86" fill="none" stroke="#fff" stroke-width=".03" stroke-linecap="round"/><linearGradient id="p" gradientUnits="userSpaceOnUse" x1="-1012.52" y1="1163.12" x2="-1002.37" y2="1163.12" gradientTransform="matrix(1 0 0 -1 1045.93 1163.23)"><stop offset="0" stop-color="#5d5e60"/><stop offset=".02" stop-color="#5b5b5d"/><stop offset=".2" stop-color="#484846"/><stop offset=".41" stop-color="#343431"/><stop offset=".65" stop-color="#222120"/><stop offset="1" stop-color="#1b1a19"/></linearGradient><path d="M43.42 0c.07 0 .14.07.14.22H33.41c0-.15.07-.22.14-.22h9.87z" fill="url(#p)"/><linearGradient id="q" gradientUnits="userSpaceOnUse" x1="-1002.48" y1="1153.01" x2="-1002.48" y2="1163.23" gradientTransform="matrix(1 0 0 -1 1045.93 1163.23)"><stop offset="0" stop-color="#5d5e60"/><stop offset=".39" stop-color="#464543"/><stop offset=".74" stop-color="#2a2927"/><stop offset="1" stop-color="#1b1a19"/></linearGradient><path d="M43.56 10c0 .15-.07.22-.14.22l-.08-.14V0h.07c.08 0 .15.07.15.22V10z" fill="url(#q)"/><path d="M37.44 24.22c-1.92 0-3.48-1.17-3.48-2.62 0-1.45 1.56-2.62 3.48-2.62 1.96 0 3.56 1.17 3.56 2.62s-1.6 2.62-3.56 2.62zm0-4.46c-.7 0-1.2.77-1.2 1.84 0 1.01.52 1.77 1.2 1.77.65 0 1.2-.81 1.2-1.77 0-1.02-.54-1.84-1.2-1.84zm-21.89 4.46c-1.92 0-3.48-1.17-3.48-2.62 0-1.38 1.6-2.55 3.48-2.55 1.96 0 3.56 1.14 3.56 2.55 0 1.45-1.6 2.62-3.56 2.62zm0-4.39c-.68 0-1.2.76-1.2 1.77s.52 1.77 1.2 1.77c.65 0 1.2-.81 1.2-1.77s-.55-1.77-1.2-1.77zm12.82 4.25-2.26-4.2-1.13.02-.03-.67 4.93-.03.03.67-1.25.03 1.75 2.91 1.46-2.95-.84.04-.03-.67 3.42-.03.03.67-1.19.03-2.2 4.18h-2.7zm-9 0-.03-.82 1.18-.03-.03-3.36-1.12.03-.03-.67 4.56-.03.03.67-1.18.03.03 3.36 1.2-.03c.38 0 1.4-.26 1.48-1.41l.75-.03.03 2.29h-6.87zm-12.89 0-2.26-4.2-1.12.02-.03-.67 4.92-.03.03.67-1.25.03 1.75 2.91 1.53-2.95-.9.04-.04-.67 3.42-.03.03.67-1.18.03-2.22 4.18H6.48z" fill="#fff"/><path d="M37.44 19c1.94 0 3.53 1.16 3.53 2.6 0 1.44-1.59 2.6-3.53 2.6-1.87 0-3.46-1.16-3.46-2.6 0-1.44 1.59-2.6 3.46-2.6m0 4.4c.65 0 1.22-.8 1.22-1.8 0-1.08-.57-1.87-1.22-1.87-.72 0-1.23.79-1.23 1.87 0 1 .51 1.8 1.23 1.8m-21.89-4.32c1.94 0 3.53 1.15 3.53 2.52 0 1.44-1.59 2.6-3.53 2.6-1.87 0-3.45-1.16-3.45-2.6 0-1.37 1.58-2.52 3.45-2.52m0 4.32c.65 0 1.23-.8 1.23-1.8s-.58-1.8-1.23-1.8c-.72 0-1.22.8-1.22 1.8s.5 1.8 1.22 1.8m18.87-4.18v.65h-1.16l-2.23 4.18h-2.66l-2.23-4.18h-1.15v-.65h4.9v.65h-1.23l1.73 2.95 1.5-2.95h-.86v-.65h3.39m-10.52 0v.65h-1.15v3.38h1.23c.43 0 1.44-.28 1.5-1.43h.73v2.23h-6.84v-.8h1.15v-3.38h-1.15v-.65h4.53m-11.37 0v.65h-1.15l-2.24 4.18H6.48l-2.23-4.18H3.1v-.65H8v.65H6.76l1.73 2.95 1.58-2.95h-.94v-.65h3.39m24.91-.27c-1.94 0-3.52 1.19-3.52 2.65s1.58 2.65 3.52 2.65c1.98 0 3.59-1.19 3.59-2.65s-1.61-2.65-3.59-2.65zm0 4.39c-.66 0-1.16-.75-1.16-1.74 0-1.05.48-1.81 1.16-1.81.64 0 1.16.81 1.16 1.81 0 .94-.53 1.74-1.16 1.74zm-21.89-4.32c-1.9 0-3.52 1.18-3.52 2.58 0 1.46 1.58 2.65 3.52 2.65 1.98 0 3.59-1.19 3.59-2.65 0-1.42-1.6-2.58-3.59-2.58zm0 4.32c-.66 0-1.16-.75-1.16-1.74 0-1 .5-1.74 1.16-1.74.63 0 1.16.8 1.16 1.74s-.53 1.74-1.16 1.74zm18.93-4.18h-3.5v.77h.82l-1.42 2.77-1.62-2.77h1.18v-.77h-5.02v.77h1.18l2.21 4.15.02.03h2.74l.02-.03 2.21-4.15h1.18v-.77zm-10.52 0h-4.65v.77h1.15v3.27h-1.15v.91h6.96v-2.35h-.84v.05c-.07 1.14-1.07 1.39-1.45 1.39H22.8v-3.27h1.15v-.77zm-11.37 0h-3.5v.77h.89L8.49 22.7l-1.62-2.77h1.18v-.77H3.04v.77H4.2l2.22 4.15.02.03h2.73l.02-.03 2.21-4.15h1.18v-.77z" fill="#39393c"/><linearGradient id="r" gradientUnits="userSpaceOnUse" x1="-1040.04" y1="1150.54" x2="-1033.54" y2="1141.75" gradientTransform="matrix(1 0 0 -1 1045.93 1163.23)"><stop offset="0" stop-color="#fff"/><stop offset=".11" stop-color="#d5ddf0"/><stop offset=".34" stop-color="#94add9"/><stop offset=".54" stop-color="#668fc9"/><stop offset=".71" stop-color="#447dbf"/><stop offset=".85" stop-color="#2a74ba"/><stop offset=".93" stop-color="#1e71b8"/><stop offset=".95" stop-color="#4079bc"/><stop offset=".97" stop-color="#5580c0"/><stop offset=".98" stop-color="#6085c2"/><stop offset="1" stop-color="#6486c3"/></linearGradient><path d="M.8 16.14a22.2 22.2 0 0 0-.72 5.4l.06 1.23.12 1.39-.06-2.5c0-1.87.32-3.6.75-5.33l15.08-.06 6.51-.13H.8z" fill="url(#r)"/></svg>